<?xml version="1.0" encoding="UTF-8" standalone="no"?>
<svg
   xmlns:dc="http://purl.org/dc/elements/1.1/"
   xmlns:cc="http://creativecommons.org/ns#"
   xmlns:rdf="http://www.w3.org/1999/02/22-rdf-syntax-ns#"
   xmlns:svg="http://www.w3.org/2000/svg"
   xmlns="http://www.w3.org/2000/svg"
   viewBox="0 0 494.51465 225.48267"
   version="1.1">
   <g transform="matrix(1.3333333,0,0,-1.3333333,-452.12132,225.48266)" id="g841">
   <g  transform="scale(0.1)"
       id="g843"><path
         id="path845"
         style="fill:#273b7d;fill-opacity:1;fill-rule:nonzero;stroke:none"
         d="m 3585.16,1512.7 -41.08,112.53 -41.07,-112.53 z m -80.85,169.86 h 79.56 l 113.4,-299.49 h -64.61 l -28.68,77.87 h -119.8 l -28.66,-77.87 h -64.61 l 113.4,299.49" /><path
         id="path847"
         style="fill:#273b7d;fill-opacity:1;fill-rule:nonzero;stroke:none"
         d="m 3948.24,1457.52 v 50.49 h -76.15 v 55.17 H 4009 V 1435.7 c -27.81,-37.22 -74.45,-61.2 -130.49,-61.2 -97.13,0 -163.44,72.74 -163.44,158.32 0,85.57 64.6,158.3 159.15,158.3 54.35,0 98.84,-24.39 126.22,-60.76 l -47.92,-37.22 c -17.1,24.39 -44.07,41.08 -78.3,41.08 -56.47,0 -96.69,-44.08 -96.69,-101.4 0,-57.34 42.36,-101.41 100.98,-101.41 28.24,0 52.62,9.85 69.73,26.11" /><path
         id="path849"
         style="fill:#273b7d;fill-opacity:1;fill-rule:nonzero;stroke:none"
         d="m 4080.69,1682.56 h 174.56 v -51.77 h -113.81 v -69.31 h 96.7 v -51.77 h -96.7 v -74.88 h 113.81 v -51.76 h -174.56 v 299.49" /><path
         id="path851"
         style="fill:#273b7d;fill-opacity:1;fill-rule:nonzero;stroke:none"
         d="m 4330,1682.56 h 77.87 l 133.92,-214.35 v 214.35 h 60.76 v -299.49 h -77.87 l -133.93,215.21 V 1383.07 H 4330 v 299.49" /><path
         id="path853"
         style="fill:#273b7d;fill-opacity:1;fill-rule:nonzero;stroke:none"
         d="m 4902.27,1472.49 47.91,-36.79 c -27.38,-37.22 -71.87,-61.2 -126.22,-61.2 -94.56,0 -159.15,72.74 -159.15,158.32 0,85.57 64.59,158.3 159.15,158.3 54.35,0 98.84,-24.39 126.22,-60.76 l -47.91,-37.22 c -17.11,24.39 -44.08,41.08 -78.31,41.08 -56.46,0 -96.69,-44.08 -96.69,-101.4 0,-57.34 40.23,-101.41 96.69,-101.41 34.23,0 61.2,16.68 78.31,41.08" /><path
         id="path855"
         style="fill:#273b7d;fill-opacity:1;fill-rule:nonzero;stroke:none"
         d="m 5006.9,1682.56 h 174.56 v -51.77 h -113.81 v -69.31 h 96.7 v -51.77 h -96.7 v -74.88 h 113.81 v -51.76 H 5006.9 v 299.49" /><path
         id="path857"
         style="fill:#273b7d;fill-opacity:1;fill-rule:nonzero;stroke:none"
         d="m 3428.56,1224.39 h 77.87 l 133.92,-214.35 v 214.35 h 60.76 V 924.898 h -77.87 L 3489.32,1140.11 V 924.898 h -60.76 v 299.492" /><path
         id="path859"
         style="fill:#273b7d;fill-opacity:1;fill-rule:nonzero;stroke:none"
         d="m 3945.63,1054.53 -41.07,112.53 -41.07,-112.53 z m -80.85,169.86 h 79.57 l 113.39,-299.492 h -64.61 l -28.66,77.862 H 3844.66 L 3816,924.898 h -64.61 l 113.39,299.492" /><path
         id="path861"
         style="fill:#273b7d;fill-opacity:1;fill-rule:nonzero;stroke:none"
         d="m 4047.3,1224.39 h 245.6 v -55.18 h -92.43 V 924.898 h -60.74 v 244.312 h -92.43 v 55.18" /><path
         id="path863"
         style="fill:#273b7d;fill-opacity:1;fill-rule:nonzero;stroke:none"
         d="m 4350.51,1224.39 h 60.75 V 924.898 h -60.75 v 299.492" /><path
         id="path865"
         style="fill:#273b7d;fill-opacity:1;fill-rule:nonzero;stroke:none"
         d="m 4729.08,1074.65 c 0,57.33 -40.22,101.4 -96.27,101.4 -56.46,0 -96.69,-44.07 -96.69,-101.4 0,-57.35 40.23,-101.4 96.69,-101.4 56.05,0 96.27,44.05 96.27,101.4 z m 62.46,0 c 0,-85.58 -64.6,-158.31 -158.73,-158.31 -94.56,0 -159.15,72.73 -159.15,158.31 0,85.56 64.59,158.3 159.15,158.3 94.13,0 158.73,-72.74 158.73,-158.3" /><path
         id="path867"
         style="fill:#273b7d;fill-opacity:1;fill-rule:nonzero;stroke:none"
         d="m 4853.83,1224.39 h 77.86 l 133.91,-214.35 v 214.35 h 60.77 V 924.898 h -77.86 L 4914.57,1140.11 V 924.898 h -60.74 v 299.492" /><path
         id="path869"
         style="fill:#273b7d;fill-opacity:1;fill-rule:nonzero;stroke:none"
         d="m 5370.89,1054.53 -41.08,112.53 -41.07,-112.53 z m -80.87,169.86 h 79.59 L 5483,924.898 h -64.61 l -28.66,77.862 h -119.81 l -28.67,-77.862 h -64.61 l 113.38,299.492" /><path
         id="path871"
         style="fill:#273b7d;fill-opacity:1;fill-rule:nonzero;stroke:none"
         d="m 5533.31,1224.39 h 60.74 V 980.102 h 113.81 v -55.204 h -174.55 v 299.492" /><path
         id="path873"
         style="fill:#273b7d;fill-opacity:1;fill-rule:nonzero;stroke:none"
         d="m 5765.51,1224.39 h 174.56 v -51.76 h -113.82 v -69.31 h 96.71 v -51.77 h -96.71 v -74.878 h 113.82 v -51.774 h -174.56 v 299.492" /><path
         id="path875"
         style="fill:#273b7d;fill-opacity:1;fill-rule:nonzero;stroke:none"
         d="m 3461.51,740.98 v -249 h 86.85 c 74.02,0 127.07,56.469 127.07,124.5 0,68.461 -53.05,124.5 -127.07,124.5 z m -27.38,25.239 h 113.81 c 92.84,0 156.17,-68.867 156.17,-149.739 0,-80.871 -63.33,-149.75 -156.17,-149.75 h -113.81 v 299.489" /><path
         id="path877"
         style="fill:#273b7d;fill-opacity:1;fill-rule:nonzero;stroke:none"
         d="m 3777.5,766.219 h 152.3 V 741.828 H 3804.88 V 631.02 H 3912.7 V 607.07 H 3804.88 V 491.109 H 3929.8 V 466.73 h -152.3 v 299.489" /><path
         id="path879"
         style="fill:#273b7d;fill-opacity:1;fill-rule:nonzero;stroke:none"
         d="m 4128.13,766.219 h 27.39 V 491.98 h 124.92 v -25.25 h -152.31 v 299.489" /><path
         id="path881"
         style="fill:#273b7d;fill-opacity:1;fill-rule:nonzero;stroke:none"
         d="M 4521.64,585.23 4457.03,744.828 4392,585.23 Z m -83.44,180.989 h 37.23 L 4598.65,466.73 h -28.66 l -38.51,94.122 h -149.32 l -38.51,-94.122 h -29.1 l 123.65,299.489" /><path
         id="path883"
         style="fill:#273b7d;fill-opacity:1;fill-rule:nonzero;stroke:none"
         d="m 4984.76,556.148 47.92,-36.789 c -27.39,-37.218 -71.88,-61.187 -126.23,-61.187 -94.55,0 -159.15,72.738 -159.15,158.308 0,85.571 64.6,158.301 159.15,158.301 54.35,0 98.84,-24.383 126.23,-60.761 l -47.92,-37.211 c -17.11,24.39 -44.08,41.082 -78.31,41.082 -56.46,0 -96.68,-44.071 -96.68,-101.411 0,-57.339 40.22,-101.402 96.68,-101.402 34.23,0 61.2,16.684 78.31,41.07" /><path
         id="path885"
         style="fill:#273b7d;fill-opacity:1;fill-rule:nonzero;stroke:none"
         d="m 5317.03,616.48 c 0,57.34 -40.22,101.411 -96.27,101.411 -56.46,0 -96.69,-44.071 -96.69,-101.411 0,-57.339 40.23,-101.402 96.69,-101.402 56.05,0 96.27,44.063 96.27,101.402 z m 62.46,0 c 0,-85.57 -64.59,-158.308 -158.73,-158.308 -94.56,0 -159.15,72.738 -159.15,158.308 0,85.571 64.59,158.301 159.15,158.301 94.14,0 158.73,-72.73 158.73,-158.301" /><path
         id="path887"
         style="fill:#273b7d;fill-opacity:1;fill-rule:nonzero;stroke:none"
         d="m 5441.78,766.219 h 60.74 V 646.84 h 151.04 v 119.379 h 60.76 V 466.73 h -60.76 V 591.672 H 5502.52 V 466.73 h -60.74 v 299.489" /><path
         id="path889"
         style="fill:#273b7d;fill-opacity:1;fill-rule:nonzero;stroke:none"
         d="m 5861.3,791.891 48.34,57.769 h 62.48 l -55.64,-57.769 z m -59.04,-25.672 h 174.56 v -51.77 H 5863 v -69.308 h 96.71 V 593.379 H 5863 v -74.891 h 113.82 V 466.73 h -174.56 v 299.489" /><path
         id="path891"
         style="fill:#273b7d;fill-opacity:1;fill-rule:nonzero;stroke:none"
         d="m 6068.67,548.879 c 17.97,-23.109 41.93,-36.797 66.32,-36.797 23.95,0 38.52,12.84 38.52,34.668 0,53.461 -136.92,41.48 -136.92,141.172 0,47.508 38.93,86.859 95.84,86.859 44.92,0 79.58,-20.101 104.82,-50.48 l -44.5,-39.789 c -17.54,22.668 -37.22,37.226 -59.9,37.226 -20.96,0 -34.65,-13.687 -34.65,-31.226 0,-53.492 136.92,-41.082 136.92,-142.481 -0.87,-55.64 -44.52,-89.859 -99.28,-89.859 -50.48,0 -84.71,18.398 -111.23,50.058 l 44.06,40.649" /><path
         id="path893"
         style="fill:#273b7d;fill-opacity:1;fill-rule:nonzero;stroke:none"
         d="m 6303.01,766.219 h 60.74 V 466.73 h -60.74 v 299.489" /><path
         id="path895"
         style="fill:#273b7d;fill-opacity:1;fill-rule:nonzero;stroke:none"
         d="m 6681.57,616.48 c 0,57.34 -40.22,101.411 -96.27,101.411 -56.46,0 -96.69,-44.071 -96.69,-101.411 0,-57.339 40.23,-101.402 96.69,-101.402 56.05,0 96.27,44.063 96.27,101.402 z m 62.46,0 c 0,-85.57 -64.59,-158.308 -158.73,-158.308 -94.56,0 -159.15,72.738 -159.15,158.308 0,85.571 64.59,158.301 159.15,158.301 94.14,0 158.73,-72.73 158.73,-158.301" /><path
         id="path897"
         style="fill:#273b7d;fill-opacity:1;fill-rule:nonzero;stroke:none"
         d="m 6806.32,766.219 h 77.87 L 7018.1,551.871 v 214.348 h 60.77 V 466.73 H 7001 L 6867.06,681.941 V 466.73 h -60.74 v 299.489" /><path
         id="path899"
         style="fill:#273b7d;fill-opacity:1;fill-rule:nonzero;stroke:none"
         d="M 3461.51,282.82 V 33.8086 h 86.85 c 74.02,0 127.07,56.4609 127.07,124.5114 0,68.461 -53.05,124.5 -127.07,124.5 z m -27.38,25.231 h 113.81 c 92.84,0 156.17,-68.871 156.17,-149.731 0,-80.8708 -63.33,-149.76141 -156.17,-149.76141 H 3434.13 V 308.051" /><path
         id="path901"
         style="fill:#273b7d;fill-opacity:1;fill-rule:nonzero;stroke:none"
         d="m 3777.5,308.051 h 152.3 V 283.672 H 3804.88 V 172.859 H 3912.7 V 148.898 H 3804.88 V 32.9492 H 3929.8 V 8.55859 H 3777.5 V 308.051" /><path
         id="path903"
         style="fill:#273b7d;fill-opacity:1;fill-rule:nonzero;stroke:none"
         d="m 4012.68,68.0391 c 22.67,-28.668 47.92,-42.7891 78.31,-42.7891 38.07,0 59.89,25.6719 59.89,56.4805 0,71.0195 -144.62,65.4605 -144.62,158.7385 0,40.633 33.38,76.152 81.3,76.152 40.22,0 69.3,-18.832 89.42,-47.922 l -20.96,-17.129 c -17.54,26.532 -40.23,40.231 -68.03,40.231 -32.51,0 -53.49,-22.25 -53.49,-51.332 0,-72.328 144.61,-66.328 144.61,-159.1682 0,-47.4922 -36.79,-80.871112 -87.7,-80.871112 -40.65,0 -72.75,16.261712 -98.84,49.210912 l 20.11,18.3985" /><path
         id="path905"
         style="fill:#273b7d;fill-opacity:1;fill-rule:nonzero;stroke:none"
         d="m 4343.2,308.051 h 245.6 v -55.18 h -92.42 V 8.55859 h -60.76 V 252.871 h -92.42 v 55.18" /><path
         id="path907"
         style="fill:#273b7d;fill-opacity:1;fill-rule:nonzero;stroke:none"
         d="m 4646.41,308.051 h 174.56 V 256.289 H 4707.16 V 186.98 h 96.7 v -51.769 h -96.7 V 60.332 h 113.81 V 8.55859 H 4646.41 V 308.051" /><path
         id="path909"
         style="fill:#273b7d;fill-opacity:1;fill-rule:nonzero;stroke:none"
         d="M 4956.46,256.289 V 181.41 h 34.23 c 25.69,0 40.66,13.699 40.66,38.078 0,22.684 -14.97,36.801 -40.66,36.801 z m -60.74,51.762 h 91.55 c 65.9,0 106.54,-33.789 106.54,-89.41 0,-35.942 -17.54,-62.911 -47.92,-77.45 L 5140.02,8.55859 h -72.73 L 4987.71,129.648 h -31.25 V 8.55859 h -60.74 V 308.051" /><path
         id="path911"
         style="fill:#273b7d;fill-opacity:1;fill-rule:nonzero;stroke:none"
         d="M 5242.54,256.289 V 181.41 h 34.23 c 25.68,0 40.65,13.699 40.65,38.078 0,22.684 -14.97,36.801 -40.65,36.801 z m -60.75,51.762 h 91.56 c 65.89,0 106.53,-33.789 106.53,-89.41 0,-35.942 -17.54,-62.911 -47.92,-77.45 L 5426.08,8.55859 h -72.73 L 5273.78,129.648 h -31.24 V 8.55859 h -60.75 V 308.051" /><path
         id="path913"
         style="fill:#273b7d;fill-opacity:1;fill-rule:nonzero;stroke:none"
         d="m 5467.86,308.051 h 60.74 V 8.55859 h -60.74 V 308.051" /><path
         id="path915"
         style="fill:#273b7d;fill-opacity:1;fill-rule:nonzero;stroke:none"
         d="m 5585.86,308.051 h 245.59 v -55.18 h -92.42 V 8.55859 h -60.74 V 252.871 h -92.43 v 55.18" /><path
         id="path917"
         style="fill:#273b7d;fill-opacity:1;fill-rule:nonzero;stroke:none"
         d="m 6105.15,158.32 c 0,57.321 -40.22,101.391 -96.27,101.391 -56.47,0 -96.69,-44.07 -96.69,-101.391 0,-57.359 40.22,-101.4098 96.69,-101.4098 56.05,0 96.27,44.0508 96.27,101.4098 z m 62.46,0 C 6167.61,72.7305 6103.02,0 6008.88,0 c -94.55,0 -159.15,72.7305 -159.15,158.32 0,85.559 64.6,158.301 159.15,158.301 94.14,0 158.73,-72.742 158.73,-158.301" /><path
         id="path919"
         style="fill:#273b7d;fill-opacity:1;fill-rule:nonzero;stroke:none"
         d="m 6229.89,308.051 h 60.75 V 8.55859 h -60.75 V 308.051" /><path
         id="path921"
         style="fill:#273b7d;fill-opacity:1;fill-rule:nonzero;stroke:none"
         d="M 6439.45,256.289 V 181.41 h 34.23 c 25.68,0 40.66,13.699 40.66,38.078 0,22.684 -14.98,36.801 -40.66,36.801 z m -60.74,51.762 h 91.55 c 65.9,0 106.54,-33.789 106.54,-89.41 0,-35.942 -17.54,-62.911 -47.92,-77.45 L 6623.01,8.55859 h -72.73 L 6470.7,129.648 h -31.25 V 8.55859 h -60.74 V 308.051" /><path
         id="path923"
         style="fill:#273b7d;fill-opacity:1;fill-rule:nonzero;stroke:none"
         d="m 6664.78,308.051 h 174.56 V 256.289 H 6725.53 V 186.98 h 96.71 v -51.769 h -96.71 V 60.332 h 113.81 V 8.55859 H 6664.78 V 308.051" /><path
         id="path925"
         style="fill:#273b7d;fill-opacity:1;fill-rule:nonzero;stroke:none"
         d="m 6931.19,90.7109 c 17.98,-23.1015 41.94,-36.8007 66.33,-36.8007 23.95,0 38.5,12.8515 38.5,34.6601 0,53.4687 -136.91,41.4997 -136.91,141.1797 0,47.5 38.93,86.871 95.84,86.871 44.92,0 79.59,-20.109 104.82,-50.492 l -44.49,-39.789 c -17.54,22.672 -37.22,37.219 -59.91,37.219 -20.96,0 -34.65,-13.688 -34.65,-31.231 0,-53.469 136.92,-41.066 136.92,-142.4686 C 7096.78,34.2305 7053.13,0 6998.37,0 c -50.49,0 -84.72,18.4102 -111.23,50.0703 l 44.05,40.6406" /></g></g></svg>
