<svg xmlns="http://www.w3.org/2000/svg" xmlns:xlink="http://www.w3.org/1999/xlink" viewBox="0 0 168.714 168">
  <defs>
    <style>
      .cls-1 {
        fill: url(#linear-gradient);
      }

      .cls-2 {
        fill: url(#linear-gradient-2);
      }

      .cls-3 {
        fill: url(#linear-gradient-3);
      }

      .cls-4 {
        fill: url(#linear-gradient-4);
      }

      .cls-5 {
        fill: url(#linear-gradient-5);
      }

      .cls-6 {
        fill: url(#linear-gradient-6);
      }

      .cls-7 {
        fill: url(#linear-gradient-7);
      }

      .cls-8 {
        fill: url(#linear-gradient-8);
      }
    </style>
    <linearGradient id="linear-gradient" y1="0.5" x2="1" y2="0.5" gradientUnits="objectBoundingBox">
      <stop offset="0" stop-color="#21295e"/>
      <stop offset="1" stop-color="#40529d"/>
    </linearGradient>
    <linearGradient id="linear-gradient-2" y1="0.499" x2="1" y2="0.499" gradientUnits="objectBoundingBox">
      <stop offset="0" stop-color="#d24745"/>
      <stop offset="1" stop-color="#a6328a"/>
    </linearGradient>
    <linearGradient id="linear-gradient-3" x1="-0.001" y1="0.5" x2="1.001" y2="0.5" gradientUnits="objectBoundingBox">
      <stop offset="0" stop-color="#513085"/>
      <stop offset="1" stop-color="#a174ac"/>
    </linearGradient>
    <linearGradient id="linear-gradient-4" x1="0.001" y1="0.5" x2="1" y2="0.5" gradientUnits="objectBoundingBox">
      <stop offset="0" stop-color="#f3bd80"/>
      <stop offset="1" stop-color="#e89db1"/>
    </linearGradient>
    <linearGradient id="linear-gradient-5" y1="0.5" x2="1" y2="0.5" gradientUnits="objectBoundingBox">
      <stop offset="0" stop-color="#40529d"/>
      <stop offset="1" stop-color="#a3b1d7"/>
    </linearGradient>
    <linearGradient id="linear-gradient-6" x1="0" y1="0.5" x2="1" y2="0.5" xlink:href="#linear-gradient-4"/>
    <linearGradient id="linear-gradient-7" y1="0.5" x2="1" y2="0.5" xlink:href="#linear-gradient"/>
    <linearGradient id="linear-gradient-8" x1="0" y1="0.5" x2="1" y2="0.5" xlink:href="#linear-gradient-2"/>
  </defs>
  <g id="Groupe_252" data-name="Groupe 252" transform="translate(0 1)">
    <path id="Tracé_747" data-name="Tracé 747" class="cls-1" d="M0,37.977,44.366,37.8l29.3,20.137L43.741,81.459,2.678,48.271Z" transform="translate(0 -4.263)"/>
    <path id="Tracé_748" data-name="Tracé 748" class="cls-2" d="M51.66,14,50.5,31.659,79.754,51.281l-1.492-23.26Z" transform="translate(-5.42 -1.583)"/>
    <path id="Tracé_749" data-name="Tracé 749" class="cls-3" d="M96.337,0,109.1.532l11.337,23.516S87.232,52,87.321,50.049C87.321,48.1,85,24.758,85,24.758Z" transform="translate(-9.123 -1)"/>
    <path id="Tracé_750" data-name="Tracé 750" class="cls-4" d="M130.4,28.5l51.239.444,1.071,15.174L153.877,78.1Z" transform="translate(-13.996 -3.215)"/>
    <path id="Tracé_751" data-name="Tracé 751" class="cls-5" d="M54.6,80.675c2.142-.887,64.26-51.025,64.26-51.025l23.578,50.493Z" transform="translate(-5.86 -3.478)"/>
    <path id="Tracé_752" data-name="Tracé 752" class="cls-6" d="M52.182,90.3h88.553l-48.65,63.182L51.2,117.365Z" transform="translate(-5.495 -10.175)"/>
    <path id="Tracé_753" data-name="Tracé 753" class="cls-7" d="M100.69,157.224h59.32L170.9,139.388,150.011,94.841l-.982-2.041Z" transform="translate(-11.023 -10.457)"/>
    <path id="Tracé_754" data-name="Tracé 754" class="cls-8" d="M87.974,160.308,47.006,125.9,24.6,155.539l46.954,25.645Z" transform="translate(-2.64 -14.184)"/>
  </g>
</svg>
